<mxfile host="app.diagrams.net" modified="2021-09-05T15:24:37.282Z" agent="5.0 (Windows NT 10.0; Win64; x64) AppleWebKit/537.36 (KHTML, like Gecko) Chrome/92.0.4515.159 Safari/537.36 Edg/92.0.902.84" etag="H2muO2BwkwX6D33pvi5e" version="14.5.10" type="github">
  <diagram id="YlzIefvgV0XutIOVZNIP" name="Page-1">
    <mxGraphModel dx="1374" dy="772" grid="1" gridSize="10" guides="1" tooltips="1" connect="1" arrows="1" fold="1" page="1" pageScale="1" pageWidth="827" pageHeight="1169" math="0" shadow="0">
      <root>
        <mxCell id="0" />
        <mxCell id="1" parent="0" />
        <mxCell id="z9FZD0dVRl34MNWvtTp8-1" value="Curso" style="swimlane;fontStyle=0;childLayout=stackLayout;horizontal=1;startSize=26;fillColor=none;horizontalStack=0;resizeParent=1;resizeParentMax=0;resizeLast=0;collapsible=1;marginBottom=0;" vertex="1" parent="1">
          <mxGeometry x="270" y="560" width="140" height="156" as="geometry">
            <mxRectangle x="270" y="340" width="60" height="26" as="alternateBounds" />
          </mxGeometry>
        </mxCell>
        <mxCell id="z9FZD0dVRl34MNWvtTp8-2" value="+ &lt;&lt;id&gt;&gt; id: Integer" style="text;strokeColor=none;fillColor=none;align=left;verticalAlign=top;spacingLeft=4;spacingRight=4;overflow=hidden;rotatable=0;points=[[0,0.5],[1,0.5]];portConstraint=eastwest;" vertex="1" parent="z9FZD0dVRl34MNWvtTp8-1">
          <mxGeometry y="26" width="140" height="26" as="geometry" />
        </mxCell>
        <mxCell id="z9FZD0dVRl34MNWvtTp8-3" value="+ nome: String" style="text;strokeColor=none;fillColor=none;align=left;verticalAlign=top;spacingLeft=4;spacingRight=4;overflow=hidden;rotatable=0;points=[[0,0.5],[1,0.5]];portConstraint=eastwest;" vertex="1" parent="z9FZD0dVRl34MNWvtTp8-1">
          <mxGeometry y="52" width="140" height="26" as="geometry" />
        </mxCell>
        <mxCell id="z9FZD0dVRl34MNWvtTp8-4" value="+ cargaHoraria: Double" style="text;strokeColor=none;fillColor=none;align=left;verticalAlign=top;spacingLeft=4;spacingRight=4;overflow=hidden;rotatable=0;points=[[0,0.5],[1,0.5]];portConstraint=eastwest;" vertex="1" parent="z9FZD0dVRl34MNWvtTp8-1">
          <mxGeometry y="78" width="140" height="26" as="geometry" />
        </mxCell>
        <mxCell id="z9FZD0dVRl34MNWvtTp8-5" value="+ valor: Double" style="text;strokeColor=none;fillColor=none;align=left;verticalAlign=top;spacingLeft=4;spacingRight=4;overflow=hidden;rotatable=0;points=[[0,0.5],[1,0.5]];portConstraint=eastwest;" vertex="1" parent="z9FZD0dVRl34MNWvtTp8-1">
          <mxGeometry y="104" width="140" height="26" as="geometry" />
        </mxCell>
        <mxCell id="z9FZD0dVRl34MNWvtTp8-6" value="+ notaMinima: Double" style="text;strokeColor=none;fillColor=none;align=left;verticalAlign=top;spacingLeft=4;spacingRight=4;overflow=hidden;rotatable=0;points=[[0,0.5],[1,0.5]];portConstraint=eastwest;" vertex="1" parent="z9FZD0dVRl34MNWvtTp8-1">
          <mxGeometry y="130" width="140" height="26" as="geometry" />
        </mxCell>
        <mxCell id="z9FZD0dVRl34MNWvtTp8-7" style="edgeStyle=orthogonalEdgeStyle;rounded=0;orthogonalLoop=1;jettySize=auto;html=1;" edge="1" parent="1" source="z9FZD0dVRl34MNWvtTp8-8" target="z9FZD0dVRl34MNWvtTp8-28">
          <mxGeometry relative="1" as="geometry">
            <mxPoint x="300" y="30" as="targetPoint" />
            <Array as="points">
              <mxPoint x="340" y="82" />
            </Array>
          </mxGeometry>
        </mxCell>
        <mxCell id="z9FZD0dVRl34MNWvtTp8-8" value="Turma" style="swimlane;fontStyle=0;childLayout=stackLayout;horizontal=1;startSize=26;fillColor=none;horizontalStack=0;resizeParent=1;resizeParentMax=0;resizeLast=0;collapsible=1;marginBottom=0;" vertex="1" parent="1">
          <mxGeometry x="270" y="304" width="140" height="130" as="geometry">
            <mxRectangle x="270" y="340" width="60" height="26" as="alternateBounds" />
          </mxGeometry>
        </mxCell>
        <mxCell id="z9FZD0dVRl34MNWvtTp8-9" value="+ &lt;&lt;id&gt;&gt; id: Integer" style="text;strokeColor=none;fillColor=none;align=left;verticalAlign=top;spacingLeft=4;spacingRight=4;overflow=hidden;rotatable=0;points=[[0,0.5],[1,0.5]];portConstraint=eastwest;" vertex="1" parent="z9FZD0dVRl34MNWvtTp8-8">
          <mxGeometry y="26" width="140" height="26" as="geometry" />
        </mxCell>
        <mxCell id="z9FZD0dVRl34MNWvtTp8-10" value="+ numeroTurma: Integer" style="text;strokeColor=none;fillColor=none;align=left;verticalAlign=top;spacingLeft=4;spacingRight=4;overflow=hidden;rotatable=0;points=[[0,0.5],[1,0.5]];portConstraint=eastwest;" vertex="1" parent="z9FZD0dVRl34MNWvtTp8-8">
          <mxGeometry y="52" width="140" height="26" as="geometry" />
        </mxCell>
        <mxCell id="z9FZD0dVRl34MNWvtTp8-11" value="+ dataInicio: Date" style="text;strokeColor=none;fillColor=none;align=left;verticalAlign=top;spacingLeft=4;spacingRight=4;overflow=hidden;rotatable=0;points=[[0,0.5],[1,0.5]];portConstraint=eastwest;" vertex="1" parent="z9FZD0dVRl34MNWvtTp8-8">
          <mxGeometry y="78" width="140" height="26" as="geometry" />
        </mxCell>
        <mxCell id="z9FZD0dVRl34MNWvtTp8-12" value="+ numeroVagas: Integer" style="text;strokeColor=none;fillColor=none;align=left;verticalAlign=top;spacingLeft=4;spacingRight=4;overflow=hidden;rotatable=0;points=[[0,0.5],[1,0.5]];portConstraint=eastwest;" vertex="1" parent="z9FZD0dVRl34MNWvtTp8-8">
          <mxGeometry y="104" width="140" height="26" as="geometry" />
        </mxCell>
        <mxCell id="z9FZD0dVRl34MNWvtTp8-13" value="" style="endArrow=none;dashed=1;html=1;dashPattern=1 3;strokeWidth=2;" edge="1" parent="1" source="z9FZD0dVRl34MNWvtTp8-14">
          <mxGeometry width="50" height="50" relative="1" as="geometry">
            <mxPoint x="535" y="470" as="sourcePoint" />
            <mxPoint x="535" y="370" as="targetPoint" />
          </mxGeometry>
        </mxCell>
        <mxCell id="z9FZD0dVRl34MNWvtTp8-14" value="Matricula" style="swimlane;fontStyle=0;childLayout=stackLayout;horizontal=1;startSize=26;fillColor=none;horizontalStack=0;resizeParent=1;resizeParentMax=0;resizeLast=0;collapsible=1;marginBottom=0;" vertex="1" parent="1">
          <mxGeometry x="465" y="440" width="140" height="78" as="geometry" />
        </mxCell>
        <mxCell id="z9FZD0dVRl34MNWvtTp8-15" value="+ dataMatricula: Date" style="text;strokeColor=none;fillColor=none;align=left;verticalAlign=top;spacingLeft=4;spacingRight=4;overflow=hidden;rotatable=0;points=[[0,0.5],[1,0.5]];portConstraint=eastwest;" vertex="1" parent="z9FZD0dVRl34MNWvtTp8-14">
          <mxGeometry y="26" width="140" height="26" as="geometry" />
        </mxCell>
        <mxCell id="z9FZD0dVRl34MNWvtTp8-16" value="+ prestacoes: Integer" style="text;strokeColor=none;fillColor=none;align=left;verticalAlign=top;spacingLeft=4;spacingRight=4;overflow=hidden;rotatable=0;points=[[0,0.5],[1,0.5]];portConstraint=eastwest;" vertex="1" parent="z9FZD0dVRl34MNWvtTp8-14">
          <mxGeometry y="52" width="140" height="26" as="geometry" />
        </mxCell>
        <mxCell id="z9FZD0dVRl34MNWvtTp8-17" value="Relation" style="endArrow=open;html=1;endSize=12;startArrow=diamondThin;startSize=14;startFill=0;edgeStyle=orthogonalEdgeStyle;" edge="1" parent="1" source="z9FZD0dVRl34MNWvtTp8-21" target="z9FZD0dVRl34MNWvtTp8-8">
          <mxGeometry relative="1" as="geometry">
            <mxPoint x="605" y="368.71" as="sourcePoint" />
            <mxPoint x="435" y="368.71" as="targetPoint" />
          </mxGeometry>
        </mxCell>
        <mxCell id="z9FZD0dVRl34MNWvtTp8-18" value="0..n" style="edgeLabel;resizable=0;html=1;align=left;verticalAlign=top;" connectable="0" vertex="1" parent="z9FZD0dVRl34MNWvtTp8-17">
          <mxGeometry x="-1" relative="1" as="geometry">
            <mxPoint x="-40" as="offset" />
          </mxGeometry>
        </mxCell>
        <mxCell id="z9FZD0dVRl34MNWvtTp8-19" value="1..*" style="edgeLabel;resizable=0;html=1;align=right;verticalAlign=top;" connectable="0" vertex="1" parent="z9FZD0dVRl34MNWvtTp8-17">
          <mxGeometry x="1" relative="1" as="geometry">
            <mxPoint x="20" as="offset" />
          </mxGeometry>
        </mxCell>
        <mxCell id="z9FZD0dVRl34MNWvtTp8-20" value="-alunos" style="text;html=1;align=center;verticalAlign=middle;resizable=0;points=[];autosize=1;strokeColor=none;" vertex="1" parent="1">
          <mxGeometry x="680" y="284" width="50" height="20" as="geometry" />
        </mxCell>
        <mxCell id="z9FZD0dVRl34MNWvtTp8-21" value="Aluno" style="swimlane;fontStyle=0;childLayout=stackLayout;horizontal=1;startSize=26;fillColor=none;horizontalStack=0;resizeParent=1;resizeParentMax=0;resizeLast=0;collapsible=1;marginBottom=0;" vertex="1" parent="1">
          <mxGeometry x="660" y="317" width="140" height="104" as="geometry" />
        </mxCell>
        <mxCell id="z9FZD0dVRl34MNWvtTp8-22" value="+ &lt;&lt;id&gt;&gt; id: Integer" style="text;strokeColor=none;fillColor=none;align=left;verticalAlign=top;spacingLeft=4;spacingRight=4;overflow=hidden;rotatable=0;points=[[0,0.5],[1,0.5]];portConstraint=eastwest;" vertex="1" parent="z9FZD0dVRl34MNWvtTp8-21">
          <mxGeometry y="26" width="140" height="26" as="geometry" />
        </mxCell>
        <mxCell id="z9FZD0dVRl34MNWvtTp8-23" value="+ nome : String" style="text;strokeColor=none;fillColor=none;align=left;verticalAlign=top;spacingLeft=4;spacingRight=4;overflow=hidden;rotatable=0;points=[[0,0.5],[1,0.5]];portConstraint=eastwest;" vertex="1" parent="z9FZD0dVRl34MNWvtTp8-21">
          <mxGeometry y="52" width="140" height="26" as="geometry" />
        </mxCell>
        <mxCell id="z9FZD0dVRl34MNWvtTp8-24" value="+ cpf : String" style="text;strokeColor=none;fillColor=none;align=left;verticalAlign=top;spacingLeft=4;spacingRight=4;overflow=hidden;rotatable=0;points=[[0,0.5],[1,0.5]];portConstraint=eastwest;" vertex="1" parent="z9FZD0dVRl34MNWvtTp8-21">
          <mxGeometry y="78" width="140" height="26" as="geometry" />
        </mxCell>
        <mxCell id="z9FZD0dVRl34MNWvtTp8-25" value="Relation" style="endArrow=open;html=1;endSize=12;startArrow=diamondThin;startSize=14;startFill=0;edgeStyle=orthogonalEdgeStyle;" edge="1" parent="1" source="z9FZD0dVRl34MNWvtTp8-8" target="z9FZD0dVRl34MNWvtTp8-1">
          <mxGeometry relative="1" as="geometry">
            <mxPoint x="450" y="200" as="sourcePoint" />
            <mxPoint x="610" y="40" as="targetPoint" />
          </mxGeometry>
        </mxCell>
        <mxCell id="z9FZD0dVRl34MNWvtTp8-26" value="0..n" style="edgeLabel;resizable=0;html=1;align=left;verticalAlign=top;" connectable="0" vertex="1" parent="z9FZD0dVRl34MNWvtTp8-25">
          <mxGeometry x="-1" relative="1" as="geometry">
            <mxPoint x="10" y="6" as="offset" />
          </mxGeometry>
        </mxCell>
        <mxCell id="z9FZD0dVRl34MNWvtTp8-27" value="1" style="edgeLabel;resizable=0;html=1;align=right;verticalAlign=top;" connectable="0" vertex="1" parent="z9FZD0dVRl34MNWvtTp8-25">
          <mxGeometry x="1" relative="1" as="geometry">
            <mxPoint x="20" y="-30" as="offset" />
          </mxGeometry>
        </mxCell>
        <mxCell id="z9FZD0dVRl34MNWvtTp8-28" value="Avaliacao" style="swimlane;fontStyle=0;childLayout=stackLayout;horizontal=1;startSize=26;fillColor=none;horizontalStack=0;resizeParent=1;resizeParentMax=0;resizeLast=0;collapsible=1;marginBottom=0;" vertex="1" parent="1">
          <mxGeometry x="660" y="30" width="140" height="104" as="geometry" />
        </mxCell>
        <mxCell id="z9FZD0dVRl34MNWvtTp8-29" value="+ &lt;&lt;id&gt;&gt; id: Integer" style="text;strokeColor=none;fillColor=none;align=left;verticalAlign=top;spacingLeft=4;spacingRight=4;overflow=hidden;rotatable=0;points=[[0,0.5],[1,0.5]];portConstraint=eastwest;" vertex="1" parent="z9FZD0dVRl34MNWvtTp8-28">
          <mxGeometry y="26" width="140" height="26" as="geometry" />
        </mxCell>
        <mxCell id="z9FZD0dVRl34MNWvtTp8-30" value="+ nota: Double" style="text;strokeColor=none;fillColor=none;align=left;verticalAlign=top;spacingLeft=4;spacingRight=4;overflow=hidden;rotatable=0;points=[[0,0.5],[1,0.5]];portConstraint=eastwest;" vertex="1" parent="z9FZD0dVRl34MNWvtTp8-28">
          <mxGeometry y="52" width="140" height="26" as="geometry" />
        </mxCell>
        <mxCell id="z9FZD0dVRl34MNWvtTp8-31" value="+ data: Date" style="text;strokeColor=none;fillColor=none;align=left;verticalAlign=top;spacingLeft=4;spacingRight=4;overflow=hidden;rotatable=0;points=[[0,0.5],[1,0.5]];portConstraint=eastwest;" vertex="1" parent="z9FZD0dVRl34MNWvtTp8-28">
          <mxGeometry y="78" width="140" height="26" as="geometry" />
        </mxCell>
        <mxCell id="z9FZD0dVRl34MNWvtTp8-32" value="" style="endArrow=block;startArrow=block;endFill=1;startFill=1;html=1;" edge="1" parent="1" source="z9FZD0dVRl34MNWvtTp8-28" target="z9FZD0dVRl34MNWvtTp8-21">
          <mxGeometry width="160" relative="1" as="geometry">
            <mxPoint x="660" y="200" as="sourcePoint" />
            <mxPoint x="820" y="200" as="targetPoint" />
          </mxGeometry>
        </mxCell>
        <mxCell id="z9FZD0dVRl34MNWvtTp8-33" value="0..n" style="edgeLabel;resizable=0;html=1;align=left;verticalAlign=top;" connectable="0" vertex="1" parent="1">
          <mxGeometry x="740" y="280.0000000000001" as="geometry" />
        </mxCell>
        <mxCell id="z9FZD0dVRl34MNWvtTp8-34" value="0..n" style="edgeLabel;resizable=0;html=1;align=left;verticalAlign=top;" connectable="0" vertex="1" parent="1">
          <mxGeometry x="740" y="150.0000000000001" as="geometry">
            <mxPoint y="-1" as="offset" />
          </mxGeometry>
        </mxCell>
        <mxCell id="z9FZD0dVRl34MNWvtTp8-35" value="" style="endArrow=none;dashed=1;html=1;" edge="1" parent="1" source="z9FZD0dVRl34MNWvtTp8-36">
          <mxGeometry width="50" height="50" relative="1" as="geometry">
            <mxPoint x="600" y="230" as="sourcePoint" />
            <mxPoint x="730" y="230" as="targetPoint" />
          </mxGeometry>
        </mxCell>
        <mxCell id="z9FZD0dVRl34MNWvtTp8-36" value="Resultado" style="swimlane;fontStyle=0;childLayout=stackLayout;horizontal=1;startSize=26;fillColor=none;horizontalStack=0;resizeParent=1;resizeParentMax=0;resizeLast=0;collapsible=1;marginBottom=0;" vertex="1" parent="1">
          <mxGeometry x="490" y="200" width="140" height="52" as="geometry" />
        </mxCell>
        <mxCell id="z9FZD0dVRl34MNWvtTp8-37" value="+ notaObtida : Double" style="text;strokeColor=none;fillColor=none;align=left;verticalAlign=top;spacingLeft=4;spacingRight=4;overflow=hidden;rotatable=0;points=[[0,0.5],[1,0.5]];portConstraint=eastwest;" vertex="1" parent="z9FZD0dVRl34MNWvtTp8-36">
          <mxGeometry y="26" width="140" height="26" as="geometry" />
        </mxCell>
        <mxCell id="z9FZD0dVRl34MNWvtTp8-38" value="- avalicoes" style="text;html=1;align=center;verticalAlign=middle;resizable=0;points=[];autosize=1;strokeColor=none;" vertex="1" parent="1">
          <mxGeometry x="652" y="134" width="70" height="20" as="geometry" />
        </mxCell>
        <mxCell id="z9FZD0dVRl34MNWvtTp8-39" value="-alunos" style="text;html=1;align=center;verticalAlign=middle;resizable=0;points=[];autosize=1;strokeColor=none;" vertex="1" parent="1">
          <mxGeometry x="602" y="339" width="50" height="20" as="geometry" />
        </mxCell>
        <mxCell id="z9FZD0dVRl34MNWvtTp8-40" value="- turmas" style="text;html=1;align=center;verticalAlign=middle;resizable=0;points=[];autosize=1;strokeColor=none;" vertex="1" parent="1">
          <mxGeometry x="410" y="340" width="60" height="20" as="geometry" />
        </mxCell>
        <mxCell id="z9FZD0dVRl34MNWvtTp8-41" value="- curso" style="text;html=1;align=center;verticalAlign=middle;resizable=0;points=[];autosize=1;strokeColor=none;" vertex="1" parent="1">
          <mxGeometry x="270" y="540" width="50" height="20" as="geometry" />
        </mxCell>
        <mxCell id="z9FZD0dVRl34MNWvtTp8-42" value="- turmas" style="text;html=1;align=center;verticalAlign=middle;resizable=0;points=[];autosize=1;strokeColor=none;" vertex="1" parent="1">
          <mxGeometry x="270" y="434" width="60" height="20" as="geometry" />
        </mxCell>
        <mxCell id="z9FZD0dVRl34MNWvtTp8-43" value="-avaliacoes" style="text;html=1;align=center;verticalAlign=middle;resizable=0;points=[];autosize=1;strokeColor=none;" vertex="1" parent="1">
          <mxGeometry x="580" y="60" width="80" height="20" as="geometry" />
        </mxCell>
        <mxCell id="z9FZD0dVRl34MNWvtTp8-44" value="- turmas" style="text;html=1;align=center;verticalAlign=middle;resizable=0;points=[];autosize=1;strokeColor=none;" vertex="1" parent="1">
          <mxGeometry x="348" y="280" width="60" height="20" as="geometry" />
        </mxCell>
      </root>
    </mxGraphModel>
  </diagram>
</mxfile>
